<?xml version="1.0" encoding="UTF-8"?>
<!DOCTYPE svg PUBLIC "-//W3C//DTD SVG 1.1//EN" "http://www.w3.org/Graphics/SVG/1.1/DTD/svg11.dtd">
<svg xmlns="http://www.w3.org/2000/svg" version="1.1" width="991px" height="269px" style="shape-rendering:geometricPrecision; text-rendering:geometricPrecision; image-rendering:optimizeQuality; fill-rule:evenodd; clip-rule:evenodd" xmlns:xlink="http://www.w3.org/1999/xlink">
<g><path style="opacity:1" fill="#f5eaf5" d="M -0.5,-0.5 C 329.833,-0.5 660.167,-0.5 990.5,-0.5C 990.5,89.1667 990.5,178.833 990.5,268.5C 660.167,268.5 329.833,268.5 -0.5,268.5C -0.5,178.833 -0.5,89.1667 -0.5,-0.5 Z"/></g>
<g><path style="opacity:1" fill="#68c7c5" d="M 134.5,22.5 C 149.335,22.0333 163.335,25.2 176.5,32C 179.756,33.4589 182.423,35.6255 184.5,38.5C 176.607,48.7342 166.94,56.7342 155.5,62.5C 153.833,61.5 152.5,60.1667 151.5,58.5C 158.418,54.4149 164.918,49.7482 171,44.5C 171.63,42.0966 170.797,40.2633 168.5,39C 150.887,31.5093 133.387,31.676 116,39.5C 113.961,37.1255 111.628,35.1255 109,33.5C 108.312,32.6683 108.479,32.0016 109.5,31.5C 117.419,27.0846 125.753,24.0846 134.5,22.5 Z"/></g>
<g><path style="opacity:1" fill="#e2509d" d="M 103.5,34.5 C 107.998,38.8298 112.665,42.9965 117.5,47C 126.304,48.9584 134.97,51.2918 143.5,54C 148.667,59.1667 153.833,64.3333 159,69.5C 161.477,73.7796 160.644,77.2796 156.5,80C 160.816,83.4717 164.149,87.6384 166.5,92.5C 166.196,94.4405 165.363,96.1072 164,97.5C 165.591,103.651 163.425,107.984 157.5,110.5C 156.872,112.258 155.872,113.758 154.5,115C 149.557,115.065 144.723,115.898 140,117.5C 137.456,117.616 135.289,116.783 133.5,115C 126.698,107.197 119.531,99.697 112,92.5C 107.333,85.1667 102.667,77.8333 98,70.5C 92.3932,64.489 88.7266,65.489 87,73.5C 82.3395,89.9535 84.1728,105.62 92.5,120.5C 90.684,122.817 88.684,124.984 86.5,127C 85.6683,127.688 85.0016,127.521 84.5,126.5C 72.5423,105.101 71.3756,83.1009 81,60.5C 83.2481,57.672 85.2481,54.672 87,51.5C 91.6988,56.5336 96.6988,61.2002 102,65.5C 107,73.5 112,81.5 117,89.5C 124.167,96.6667 131.333,103.833 138.5,111C 139.725,111.563 140.725,111.23 141.5,110C 135.333,103.833 129.167,97.6667 123,91.5C 122.231,86.5219 124.064,85.3552 128.5,88C 135.734,95.4027 143.068,102.569 150.5,109.5C 151.521,108.998 151.688,108.332 151,107.5C 144.333,100.833 137.667,94.1667 131,87.5C 129.833,83.3333 131.333,81.8333 135.5,83C 142.348,90.0147 149.348,96.848 156.5,103.5C 157.408,102.21 157.241,100.877 156,99.5C 149.364,93.8655 143.031,87.8655 137,81.5C 135.833,77.3333 137.333,75.8333 141.5,77C 147.167,82.6667 152.833,88.3333 158.5,94C 159.483,94.5908 160.15,94.2575 160.5,93C 151.64,83.3081 142.64,73.8081 133.5,64.5C 134.427,62.0544 136.094,61.2211 138.5,62C 143,66.5 147.5,71 152,75.5C 153.578,74.2887 153.745,72.9554 152.5,71.5C 148.015,67.5154 143.682,63.3487 139.5,59C 131.139,56.773 122.806,54.4396 114.5,52C 109.298,47.963 104.631,43.463 100.5,38.5C 101.524,37.1482 102.524,35.8149 103.5,34.5 Z"/></g>
<g><path style="opacity:1" fill="#433d42" d="M 275.5,47.5 C 291.618,45.9419 305.951,50.1086 318.5,60C 316.645,61.8551 314.812,63.6884 313,65.5C 299.626,54.5431 285.126,52.7098 269.5,60C 264.132,63.9031 260.632,69.0698 259,75.5C 257.616,86.1085 258.616,96.4418 262,106.5C 271.293,118.874 283.459,122.707 298.5,118C 303.786,116.359 308.453,113.692 312.5,110C 313.5,109.333 314.5,109.333 315.5,110C 316.453,111.955 317.787,113.622 319.5,115C 309.436,123.412 297.769,127.579 284.5,127.5C 250.734,125.008 236.901,107.008 243,73.5C 248.98,58.6788 259.814,50.0122 275.5,47.5 Z"/></g>
<g><path style="opacity:1" fill="#433d42" d="M 329.5,49.5 C 346.875,49.0878 364.209,49.5878 381.5,51C 399.782,55.7331 406.615,67.2331 402,85.5C 398.895,92.4804 393.729,97.3137 386.5,100C 392.113,108.612 398.113,116.946 404.5,125C 398.5,125.667 392.5,125.667 386.5,125C 381.377,117.921 376.377,110.754 371.5,103.5C 362.859,102.502 354.192,102.169 345.5,102.5C 345.5,110.167 345.5,117.833 345.5,125.5C 340.167,125.5 334.833,125.5 329.5,125.5C 329.5,100.167 329.5,74.8333 329.5,49.5 Z"/></g>
<g><path style="opacity:1" fill="#423c41" d="M 440.5,49.5 C 449.192,49.1686 457.859,49.502 466.5,50.5C 476.796,75.4192 486.796,100.419 496.5,125.5C 491.456,125.827 486.456,125.494 481.5,124.5C 479.296,118.595 476.963,112.762 474.5,107C 460.5,106.333 446.5,106.333 432.5,107C 430.085,112.732 427.752,118.565 425.5,124.5C 420.544,125.494 415.544,125.827 410.5,125.5C 420.493,100.177 430.493,74.8439 440.5,49.5 Z"/></g>
<g><path style="opacity:1" fill="#433d42" d="M 504.5,49.5 C 525.167,49.5 545.833,49.5 566.5,49.5C 566.5,52.1667 566.5,54.8333 566.5,57.5C 551.167,57.5 535.833,57.5 520.5,57.5C 520.169,64.8635 520.503,72.1968 521.5,79.5C 535.947,74.937 549.947,76.1037 563.5,83C 572.392,90.7318 574.892,100.232 571,111.5C 567.611,118.554 562.111,123.054 554.5,125C 538.145,129.428 522.478,127.762 507.5,120C 505.208,118.71 503.208,117.043 501.5,115C 503.213,113.622 504.547,111.955 505.5,110C 511.756,113.453 518.423,116.453 525.5,119C 533.839,120.315 541.839,119.315 549.5,116C 551.378,114.457 552.878,112.624 554,110.5C 559.235,97.1373 555.068,88.6373 541.5,85C 532.49,83.3362 524.157,85.0029 516.5,90C 512.514,90.4988 508.514,90.6655 504.5,90.5C 504.5,76.8333 504.5,63.1667 504.5,49.5 Z"/></g>
<g><path style="opacity:1" fill="#6bc8c6" d="M 196.5,51.5 C 198.25,52.7417 199.917,54.2417 201.5,56C 197.667,59.8333 193.833,63.6667 190,67.5C 187.986,76.2214 185.652,84.8881 183,93.5C 177.833,100 172,105.833 165.5,111C 161.067,111.967 160.567,111.134 164,108.5C 166.733,101.747 171.066,96.0805 177,91.5C 179.489,83.2111 181.822,74.8778 184,66.5C 187.698,61.0996 191.865,56.0996 196.5,51.5 Z"/></g>
<g><path style="opacity:1" fill="#f4e9f4" d="M 345.5,57.5 C 356.245,57.0712 366.912,57.5712 377.5,59C 384.29,62.1394 387.29,67.4728 386.5,75C 387.437,83.127 384.437,89.127 377.5,93C 366.912,94.4288 356.245,94.9288 345.5,94.5C 345.5,82.1667 345.5,69.8333 345.5,57.5 Z"/></g>
<g><path style="opacity:1" fill="#f0e5f0" d="M 452.5,58.5 C 454.411,58.5743 455.578,59.5743 456,61.5C 460.231,73.7758 465.065,85.7758 470.5,97.5C 459.167,98.8333 447.833,98.8333 436.5,97.5C 441.841,84.4711 447.174,71.4711 452.5,58.5 Z"/></g>
<g><path style="opacity:1" fill="#3ea3db" d="M 202.5,63.5 C 204.614,64.9071 206.114,66.9071 207,69.5C 212.403,88.4676 210.737,106.801 202,124.5C 199.71,128.619 196.876,132.286 193.5,135.5C 185.178,127.362 178.178,118.195 172.5,108C 173.766,106.017 175.432,105.017 177.5,105C 180.833,110 184.167,115 187.5,120C 189.441,120.743 191.274,120.576 193,119.5C 201.532,103.888 202.698,87.7213 196.5,71C 198.32,68.3478 200.32,65.8478 202.5,63.5 Z"/></g>
<g><path style="opacity:1" fill="#93479a" d="M 108.5,92.5 C 110.257,93.292 111.591,94.6253 112.5,96.5C 111.185,98.3159 109.685,99.9825 108,101.5C 106.32,109.248 104.32,116.915 102,124.5C 99.8156,129.688 96.4822,134.022 92,137.5C 90.3409,136.183 89.1743,134.517 88.5,132.5C 90.483,130.016 92.6496,127.683 95,125.5C 97.5065,116.478 100.173,107.478 103,98.5C 105.04,96.6298 106.873,94.6298 108.5,92.5 Z"/></g>
<g><path style="opacity:1" fill="#42a4db" d="M 128.5,112.5 C 131.822,113.936 132.989,116.269 132,119.5C 136.865,124.7 142.032,129.533 147.5,134C 154.855,135.538 162.188,137.204 169.5,139C 173.725,141.216 177.392,144.216 180.5,148C 176.479,151.561 173.146,150.894 170.5,146C 160.96,143.968 151.627,141.302 142.5,138C 137.333,132.833 132.167,127.667 127,122.5C 124.729,118.697 125.229,115.363 128.5,112.5 Z"/></g>
<g><path style="opacity:1" fill="#904197" d="M 129.5,129.5 C 131.729,130.055 133.395,131.389 134.5,133.5C 130.858,135.975 127.358,138.642 124,141.5C 123.289,143.367 123.789,144.867 125.5,146C 130.994,147.926 136.661,148.759 142.5,148.5C 148.926,148.364 155.259,147.864 161.5,147C 163.684,149.016 165.684,151.183 167.5,153.5C 146.898,161.17 126.898,159.837 107.5,149.5C 106.479,148.998 106.312,148.332 107,147.5C 113.822,140.496 121.322,134.496 129.5,129.5 Z"/></g>
<g><path style="opacity:1" fill="#847782" d="M 313.5,175.5 C 314.833,175.5 316.167,175.5 317.5,175.5C 317.334,184.173 317.5,192.84 318,201.5C 321.833,197 325.667,192.5 329.5,188C 330.944,187.219 332.277,187.386 333.5,188.5C 330.833,191.833 328.167,195.167 325.5,198.5C 328.709,203.752 332.042,208.918 335.5,214C 333.833,214.667 332.167,214.667 330.5,214C 328.19,209.867 325.524,206.034 322.5,202.5C 318.134,205.309 316.467,209.309 317.5,214.5C 316.167,214.5 314.833,214.5 313.5,214.5C 313.5,201.5 313.5,188.5 313.5,175.5 Z"/></g>
<g><path style="opacity:1" fill="#857883" d="M 487.5,175.5 C 488.833,175.5 490.167,175.5 491.5,175.5C 491.334,180.844 491.501,186.177 492,191.5C 497.407,186.235 502.74,186.235 508,191.5C 508.5,199.159 508.666,206.826 508.5,214.5C 507.167,214.5 505.833,214.5 504.5,214.5C 504.666,207.492 504.5,200.492 504,193.5C 500.057,190.634 496.39,190.968 493,194.5C 492.5,201.158 492.334,207.825 492.5,214.5C 490.833,214.5 489.167,214.5 487.5,214.5C 487.5,201.5 487.5,188.5 487.5,175.5 Z"/></g>
<g><path style="opacity:1" fill="#8a7d88" d="M 739.5,175.5 C 741.167,175.5 742.833,175.5 744.5,175.5C 744.173,180.544 744.506,185.544 745.5,190.5C 749.504,187.238 753.837,186.738 758.5,189C 759.126,189.75 759.626,190.584 760,191.5C 761.396,199.08 761.896,206.747 761.5,214.5C 759.833,214.5 758.167,214.5 756.5,214.5C 756.666,207.492 756.5,200.492 756,193.5C 752.136,190.75 748.469,191.084 745,194.5C 744.5,201.158 744.334,207.825 744.5,214.5C 742.833,214.5 741.167,214.5 739.5,214.5C 739.5,201.5 739.5,188.5 739.5,175.5 Z"/></g>
<g><path style="opacity:1" fill="#897c87" d="M 470.5,180.5 C 471.833,180.5 473.167,180.5 474.5,180.5C 474.5,182.833 474.5,185.167 474.5,187.5C 476.833,187.5 479.167,187.5 481.5,187.5C 481.5,188.833 481.5,190.167 481.5,191.5C 479.167,191.5 476.833,191.5 474.5,191.5C 474.334,197.509 474.501,203.509 475,209.5C 477.519,210.88 480.019,212.213 482.5,213.5C 476.731,216.984 472.564,215.65 470,209.5C 469.501,203.509 469.334,197.509 469.5,191.5C 468.5,191.5 467.5,191.5 466.5,191.5C 466.5,190.5 466.5,189.5 466.5,188.5C 467.822,188.67 468.989,188.337 470,187.5C 470.497,185.19 470.663,182.857 470.5,180.5 Z"/></g>
<g><path style="opacity:1" fill="#837681" d="M 240.5,187.5 C 243.388,187.22 244.888,188.553 245,191.5C 250.25,186.194 255.417,186.194 260.5,191.5C 264.569,187.371 269.236,186.537 274.5,189C 275.126,189.75 275.626,190.584 276,191.5C 276.5,199.159 276.666,206.826 276.5,214.5C 275.167,214.5 273.833,214.5 272.5,214.5C 272.666,207.492 272.5,200.492 272,193.5C 268.259,190.704 264.759,191.037 261.5,194.5C 260.503,201.134 260.17,207.8 260.5,214.5C 259.167,214.5 257.833,214.5 256.5,214.5C 256.666,207.492 256.5,200.492 256,193.5C 252.136,190.75 248.469,191.084 245,194.5C 244.5,201.158 244.334,207.825 244.5,214.5C 243.167,214.5 241.833,214.5 240.5,214.5C 240.5,205.5 240.5,196.5 240.5,187.5 Z"/></g>
<g><path style="opacity:1" fill="#857883" d="M 290.5,187.5 C 293.518,187.335 296.518,187.502 299.5,188C 300.931,188.465 302.097,189.299 303,190.5C 304.435,198.389 304.935,206.389 304.5,214.5C 303.167,214.5 301.833,214.5 300.5,214.5C 300.649,213.448 300.483,212.448 300,211.5C 292.563,217.766 287.063,216.432 283.5,207.5C 283.94,204.786 285.274,202.62 287.5,201C 291.629,199.051 295.963,197.884 300.5,197.5C 300.312,192.243 297.645,190.076 292.5,191C 290.481,191.45 288.648,192.283 287,193.5C 285.77,192.725 285.437,191.725 286,190.5C 287.652,189.601 289.152,188.601 290.5,187.5 Z"/></g>
<g><path style="opacity:1" fill="#867984" d="M 344.5,187.5 C 355.78,186.114 360.78,191.114 359.5,202.5C 353.5,202.5 347.5,202.5 341.5,202.5C 343.302,211.53 348.302,213.863 356.5,209.5C 357.287,210.242 357.953,211.075 358.5,212C 351.26,217.211 344.76,216.378 339,209.5C 335.582,200.632 337.416,193.299 344.5,187.5 Z"/></g>
<g><path style="opacity:1" fill="#867984" d="M 421.5,187.5 C 432.78,186.114 437.78,191.114 436.5,202.5C 430.5,202.5 424.5,202.5 418.5,202.5C 420.302,211.53 425.302,213.863 433.5,209.5C 434.287,210.242 434.953,211.075 435.5,212C 428.26,217.211 421.76,216.378 416,209.5C 412.582,200.632 414.416,193.299 421.5,187.5 Z"/></g>
<g><path style="opacity:1" fill="#877a85" d="M 447.5,187.5 C 453.741,185.988 458.241,187.988 461,193.5C 461.5,200.492 461.666,207.492 461.5,214.5C 460.167,214.5 458.833,214.5 457.5,214.5C 457.372,211.226 456.039,211.059 453.5,214C 449.343,216.171 445.509,215.671 442,212.5C 439.46,207.903 440.293,204.07 444.5,201C 448.327,199.21 452.327,198.044 456.5,197.5C 456.838,192.335 454.505,190.169 449.5,191C 447.481,191.45 445.648,192.283 444,193.5C 442.77,192.725 442.437,191.725 443,190.5C 444.409,189.219 445.909,188.219 447.5,187.5 Z"/></g>
<g><path style="opacity:1" fill="#857883" d="M 523.5,187.5 C 534.328,186.663 538.994,191.663 537.5,202.5C 531.833,202.5 526.167,202.5 520.5,202.5C 522.022,211.344 526.855,213.677 535,209.5C 535.692,210.025 536.192,210.692 536.5,211.5C 530.136,216.939 523.969,216.606 518,210.5C 513.193,201.037 515.026,193.37 523.5,187.5 Z"/></g>
<g><path style="opacity:1" fill="#837681" d="M 544.5,187.5 C 547.388,187.22 548.888,188.553 549,191.5C 551.408,188.38 554.574,187.047 558.5,187.5C 558.5,188.833 558.5,190.167 558.5,191.5C 553.867,190.458 550.701,192.125 549,196.5C 548.501,202.491 548.334,208.491 548.5,214.5C 547.167,214.5 545.833,214.5 544.5,214.5C 544.5,205.5 544.5,196.5 544.5,187.5 Z"/></g>
<g><path style="opacity:1" fill="#837681" d="M 574.5,187.5 C 577.388,187.22 578.888,188.553 579,191.5C 581.408,188.38 584.574,187.047 588.5,187.5C 588.5,188.833 588.5,190.167 588.5,191.5C 583.867,190.458 580.701,192.125 579,196.5C 578.501,202.491 578.334,208.491 578.5,214.5C 577.167,214.5 575.833,214.5 574.5,214.5C 574.5,205.5 574.5,196.5 574.5,187.5 Z"/></g>
<g><path style="opacity:1" fill="#857883" d="M 598.5,187.5 C 609.328,186.663 613.994,191.663 612.5,202.5C 606.833,202.5 601.167,202.5 595.5,202.5C 597.022,211.344 601.855,213.677 610,209.5C 610.692,210.025 611.192,210.692 611.5,211.5C 604.062,217.289 597.562,216.289 592,208.5C 588.471,199.62 590.637,192.62 598.5,187.5 Z"/></g>
<g><path style="opacity:1" fill="#857883" d="M 623.5,187.5 C 627.96,186.885 631.96,187.885 635.5,190.5C 635.113,191.72 634.28,192.387 633,192.5C 629.61,189.975 626.276,189.975 623,192.5C 622.333,193.833 622.333,195.167 623,196.5C 625.978,198.382 629.145,199.882 632.5,201C 637.726,205.251 637.726,209.585 632.5,214C 626.967,216.411 621.967,215.578 617.5,211.5C 618,210.5 618.5,209.5 619,208.5C 623.219,211.871 627.553,212.205 632,209.5C 632.72,207.888 632.554,206.388 631.5,205C 626.639,203.607 622.472,201.107 619,197.5C 617.571,192.783 619.071,189.45 623.5,187.5 Z"/></g>
<g><path style="opacity:1" fill="#877a85" d="M 648.5,187.5 C 659.833,186.167 664.833,191.167 663.5,202.5C 657.5,202.5 651.5,202.5 645.5,202.5C 647.201,211.515 652.201,213.849 660.5,209.5C 661.287,210.242 661.953,211.075 662.5,212C 652.477,217.912 645.311,215.412 641,204.5C 639.703,197.099 642.203,191.432 648.5,187.5 Z"/></g>
<g><path style="opacity:1" fill="#847883" d="M 673.5,187.5 C 678.765,186.571 683.265,187.904 687,191.5C 687.5,199.159 687.666,206.826 687.5,214.5C 686.5,214.5 685.5,214.5 684.5,214.5C 684.719,213.325 684.386,212.325 683.5,211.5C 678.217,216.672 673.05,216.672 668,211.5C 666.276,206.269 667.776,202.435 672.5,200C 676.07,198.69 679.737,197.857 683.5,197.5C 683.377,192.266 680.71,190.099 675.5,191C 673.833,191.833 672.167,192.667 670.5,193.5C 669.713,192.758 669.047,191.925 668.5,191C 670.233,189.811 671.9,188.644 673.5,187.5 Z"/></g>
<g><path style="opacity:1" fill="#897c87" d="M 696.5,187.5 C 697.833,187.5 699.167,187.5 700.5,187.5C 700.34,189.199 700.506,190.866 701,192.5C 702.945,188.61 706.112,186.943 710.5,187.5C 710.5,188.833 710.5,190.167 710.5,191.5C 706.645,190.845 703.812,192.179 702,195.5C 701.5,201.825 701.334,208.158 701.5,214.5C 699.833,214.5 698.167,214.5 696.5,214.5C 696.5,205.5 696.5,196.5 696.5,187.5 Z"/></g>
<g><path style="opacity:1" fill="#877a85" d="M 721.5,187.5 C 725.257,187.071 728.757,187.737 732,189.5C 732.483,190.448 732.649,191.448 732.5,192.5C 720.917,189.248 716.084,193.581 718,205.5C 721.116,211.556 725.616,212.889 731.5,209.5C 733.101,210.035 733.601,211.035 733,212.5C 721.011,217.718 714.178,213.718 712.5,200.5C 713.293,194.563 716.293,190.229 721.5,187.5 Z"/></g>
<g><path style="opacity:1" fill="#857883" d="M 786.5,187.5 C 797.328,186.663 801.994,191.663 800.5,202.5C 794.833,202.5 789.167,202.5 783.5,202.5C 785.022,211.344 789.855,213.677 798,209.5C 798.692,210.025 799.192,210.692 799.5,211.5C 792.062,217.289 785.562,216.289 780,208.5C 776.471,199.62 778.637,192.62 786.5,187.5 Z"/></g>
<g><path style="opacity:1" fill="#857883" d="M 811.5,187.5 C 814.518,187.335 817.518,187.502 820.5,188C 821.931,188.465 823.097,189.299 824,190.5C 825.435,198.389 825.935,206.389 825.5,214.5C 824.167,214.5 822.833,214.5 821.5,214.5C 821.649,213.448 821.483,212.448 821,211.5C 813.563,217.766 808.063,216.432 804.5,207.5C 804.94,204.786 806.274,202.62 808.5,201C 812.629,199.051 816.963,197.884 821.5,197.5C 821.312,192.243 818.645,190.076 813.5,191C 811.481,191.45 809.648,192.283 808,193.5C 806.77,192.725 806.437,191.725 807,190.5C 808.652,189.601 810.152,188.601 811.5,187.5 Z"/></g>
<g><path style="opacity:1" fill="#877a85" d="M 837.5,187.5 C 840.518,187.335 843.518,187.502 846.5,188C 849.817,189.085 850.151,190.585 847.5,192.5C 845.043,190.775 842.377,190.275 839.5,191C 836.833,193.333 836.833,195.667 839.5,198C 843.363,199.181 846.863,201.014 850,203.5C 851.48,212.526 847.647,216.359 838.5,215C 835.71,214.439 833.377,213.106 831.5,211C 832.047,210.075 832.713,209.242 833.5,208.5C 837.514,211.912 841.68,212.245 846,209.5C 846.667,208.167 846.667,206.833 846,205.5C 842.61,203.554 839.11,201.721 835.5,200C 831.276,195.059 831.943,190.892 837.5,187.5 Z"/></g>
<g><path style="opacity:1" fill="#8a7d88" d="M 374.5,187.5 C 376.144,187.286 377.644,187.62 379,188.5C 381.076,195.397 382.743,202.397 384,209.5C 386.291,202.387 388.457,195.22 390.5,188C 392.112,187.28 393.612,187.446 395,188.5C 397.155,195.455 399.155,202.455 401,209.5C 402.509,202.464 404.176,195.464 406,188.5C 407.356,187.62 408.856,187.286 410.5,187.5C 408.041,196.054 405.874,204.72 404,213.5C 401.959,214.423 399.792,214.756 397.5,214.5C 396.593,207.626 394.926,200.959 392.5,194.5C 390.654,200.886 388.654,207.219 386.5,213.5C 384.955,214.452 383.288,214.785 381.5,214.5C 379.315,205.423 376.981,196.423 374.5,187.5 Z"/></g>
<g><path style="opacity:1" fill="#887b86" d="M 853.5,187.5 C 855.144,187.286 856.644,187.62 858,188.5C 860.47,195.578 863.137,202.578 866,209.5C 868.269,202.194 870.436,194.86 872.5,187.5C 874.288,187.215 875.955,187.548 877.5,188.5C 873.902,198.128 870.402,207.795 867,217.5C 865.001,223.681 860.834,226.348 854.5,225.5C 854.5,224.5 854.5,223.5 854.5,222.5C 859.738,222.767 862.738,220.267 863.5,215C 860.262,205.785 856.929,196.618 853.5,187.5 Z"/></g>
<g><path style="opacity:1" fill="#ebe0eb" d="M 346.5,190.5 C 352.833,190.167 355.833,193.167 355.5,199.5C 350.833,199.5 346.167,199.5 341.5,199.5C 341.861,195.778 343.528,192.778 346.5,190.5 Z"/></g>
<g><path style="opacity:1" fill="#ebe0eb" d="M 423.5,190.5 C 429.833,190.167 432.833,193.167 432.5,199.5C 427.833,199.5 423.167,199.5 418.5,199.5C 418.861,195.778 420.528,192.778 423.5,190.5 Z"/></g>
<g><path style="opacity:1" fill="#eadee9" d="M 525.5,190.5 C 531.5,190.5 534.5,193.5 534.5,199.5C 529.5,199.5 524.5,199.5 519.5,199.5C 519.932,195.41 521.932,192.41 525.5,190.5 Z"/></g>
<g><path style="opacity:1" fill="#eadee9" d="M 600.5,190.5 C 606.5,190.5 609.5,193.5 609.5,199.5C 604.5,199.5 599.5,199.5 594.5,199.5C 594.932,195.41 596.932,192.41 600.5,190.5 Z"/></g>
<g><path style="opacity:1" fill="#ebdfea" d="M 650.5,190.5 C 656.5,190.5 659.5,193.5 659.5,199.5C 654.833,199.5 650.167,199.5 645.5,199.5C 645.372,195.415 647.039,192.415 650.5,190.5 Z"/></g>
<g><path style="opacity:1" fill="#eadee9" d="M 788.5,190.5 C 794.5,190.5 797.5,193.5 797.5,199.5C 792.5,199.5 787.5,199.5 782.5,199.5C 782.932,195.41 784.932,192.41 788.5,190.5 Z"/></g>
<g><path style="opacity:1" fill="#eee3ee" d="M 296.5,200.5 C 297.833,200.5 299.167,200.5 300.5,200.5C 301.658,209.092 297.992,212.426 289.5,210.5C 288.359,208.579 288.192,206.579 289,204.5C 291.417,202.872 293.917,201.539 296.5,200.5 Z"/></g>
<g><path style="opacity:1" fill="#f1e6f1" d="M 453.5,200.5 C 454.5,200.5 455.5,200.5 456.5,200.5C 458.032,208.969 454.698,212.302 446.5,210.5C 445.359,208.579 445.192,206.579 446,204.5C 448.255,202.501 450.755,201.168 453.5,200.5 Z"/></g>
<g><path style="opacity:1" fill="#f0e5f0" d="M 679.5,200.5 C 680.833,200.5 682.167,200.5 683.5,200.5C 684.594,210.159 680.76,213.159 672,209.5C 671.333,207.833 671.333,206.167 672,204.5C 674.514,202.996 677.014,201.662 679.5,200.5 Z"/></g>
<g><path style="opacity:1" fill="#eee3ee" d="M 817.5,200.5 C 818.833,200.5 820.167,200.5 821.5,200.5C 822.658,209.092 818.992,212.426 810.5,210.5C 809.359,208.579 809.192,206.579 810,204.5C 812.417,202.872 814.917,201.539 817.5,200.5 Z"/></g>
</svg>
